HIERARCHY
ROOT Hips
{
	OFFSET -0.001795 -0.223333 0.028219
	CHANNELS 6 Xposition Yposition Zposition Zrotation Yrotation Xrotation 
	JOINT LeftUpLeg
	{
		OFFSET 0.069520 -0.091406 -0.006815
		CHANNELS 3 Zrotation Yrotation Xrotation
		JOINT LeftLeg
		{
			OFFSET 0.034277 -0.375199 -0.004496
			CHANNELS 3 Zrotation Yrotation Xrotation
			JOINT LeftFoot
			{
				OFFSET -0.013596 -0.397961 -0.043693
				CHANNELS 3 Zrotation Yrotation Xrotation
				JOINT LeftToe
				{
					OFFSET 0.026358 -0.055791 0.119288
					CHANNELS 3 Zrotation Yrotation Xrotation
					End Site
					{
						OFFSET 0.000000 0.000000 0.000000
					}
				}
			}
		}
	}
	JOINT RightUpLeg
	{
		OFFSET -0.067670 -0.090522 -0.004320
		CHANNELS 3 Zrotation Yrotation Xrotation
		JOINT RightLeg
		{
			OFFSET -0.038290 -0.382569 -0.008850
			CHANNELS 3 Zrotation Yrotation Xrotation
			JOINT RightFoot
			{
				OFFSET 0.015774 -0.398415 -0.042312
				CHANNELS 3 Zrotation Yrotation Xrotation
				JOINT RightToe
				{
					OFFSET -0.025372 -0.048144 0.123348
					CHANNELS 3 Zrotation Yrotation Xrotation
					End Site
					{
						OFFSET 0.000000 0.000000 0.000000
					}
				}
			}
		}
	}
	JOINT Spine
	{
		OFFSET -0.002533 0.108963 -0.026696
		CHANNELS 3 Zrotation Yrotation Xrotation
		JOINT Spine1
		{
			OFFSET 0.005487 0.135180 0.001092
			CHANNELS 3 Zrotation Yrotation Xrotation
			JOINT Spine2
			{
				OFFSET 0.001457 0.052922 0.025425
				CHANNELS 3 Zrotation Yrotation Xrotation
				JOINT Neck
				{
					OFFSET -0.002778 0.213870 -0.042857
					CHANNELS 3 Zrotation Yrotation Xrotation
					JOINT Head
					{
						OFFSET 0.005152 0.064970 0.051349
						CHANNELS 3 Zrotation Yrotation Xrotation
						End Site
						{
							OFFSET 0.000000 0.000000 0.000000
						}
					}
				}
				JOINT LeftShoulder
				{
					OFFSET 0.078845 0.121749 -0.034090
					CHANNELS 3 Zrotation Yrotation Xrotation
					JOINT LeftArm
					{
						OFFSET 0.090977 0.030469 -0.008868
						CHANNELS 3 Zrotation Yrotation Xrotation
						JOINT LeftForeArm
						{
							OFFSET 0.259612 -0.012772 -0.027456
							CHANNELS 3 Zrotation Yrotation Xrotation
							JOINT LeftHand
							{
								OFFSET 0.249234 0.008986 -0.001171
								CHANNELS 3 Zrotation Yrotation Xrotation
								End Site
								{
									OFFSET 0.000000 0.000000 0.000000
								}
							}
						}
					}
				}
				JOINT RightShoulder
				{
					OFFSET -0.081759 0.118833 -0.038615
					CHANNELS 3 Zrotation Yrotation Xrotation
					JOINT RightArm
					{
						OFFSET -0.096012 0.032551 -0.009143
						CHANNELS 3 Zrotation Yrotation Xrotation
						JOINT RightForeArm
						{
							OFFSET -0.253742 -0.013329 -0.021401
							CHANNELS 3 Zrotation Yrotation Xrotation
							JOINT RightHand
							{
								OFFSET -0.255298 0.007772 -0.005559
								CHANNELS 3 Zrotation Yrotation Xrotation
								End Site
								{
									OFFSET 0.000000 0.000000 0.000000
								}
							}
						}
					}
				}
			}
		}
	}
}
MOTION
Frames: 6
Frame Time: 0.050000
0.000000 0.937783 0.000000 -2.085891 -5.288293 5.435454 4.055137 -1.118008 -24.155958 -4.613358 0.788068 13.567125 6.747902 14.902068 11.718315 0.000000 0.000000 0.000000 -3.957544 1.110103 -13.284540 7.355965 -0.729063 50.391121 -3.888871 -12.417574 10.509126 0.000000 0.000000 0.000000 -4.822344 0.235597 14.101858 2.864314 -0.343912 -20.643028 0.741492 4.459131 27.418433 1.472737 0.507772 -19.642369 0.000000 0.000000 0.000000 -20.666155 -2.550680 0.004681 -45.954435 -5.610393 -5.563868 -6.731924 -38.313864 4.340114 0.000000 0.000000 0.000000 14.847436 6.462526 2.813245 54.929522 8.513099 -4.044266 -0.709988 40.504860 2.104242 0.000000 0.000000 0.000000 
0.003808 0.945298 0.022171 -2.312455 -5.183718 3.772272 4.263059 -0.914029 -19.228133 -4.716422 0.745595 10.767818 6.527793 14.510563 10.946443 0.000000 0.000000 0.000000 -3.784298 1.257775 -15.183751 9.283324 -1.909277 51.604335 -5.256162 -14.619930 8.141772 0.000000 0.000000 0.000000 -5.803681 0.391888 15.598851 3.818121 -0.561057 -21.245776 0.539646 2.603149 27.684952 -0.102285 1.216905 -18.806192 0.000000 0.000000 0.000000 -19.773548 -0.379938 -0.665589 -46.259039 -6.065079 -5.597019 -6.852074 -39.661747 4.809617 0.000000 0.000000 0.000000 13.126749 7.328992 2.849996 55.893323 8.727825 -3.989746 -0.837883 39.029312 1.769767 0.000000 0.000000 0.000000 
0.005964 0.952158 0.041677 -3.048845 -5.363866 2.861399 4.924493 -0.689969 -15.956442 -4.032615 0.587360 9.926331 5.298265 12.233349 8.524101 0.000000 0.000000 0.000000 -3.164180 1.456083 -16.822818 9.488192 -1.946408 47.214085 -5.955952 -15.677409 5.515211 0.000000 0.000000 0.000000 -4.716117 0.208559 16.252680 3.996133 -0.632739 -21.069098 -0.168694 2.203308 27.343930 -1.236593 1.920761 -18.995603 0.000000 0.000000 0.000000 -19.660356 0.080662 -0.805888 -46.464790 -7.494413 -5.089577 -5.871450 -39.166382 4.446650 0.000000 0.000000 0.000000 13.507553 5.422323 1.829217 56.034164 8.544356 -4.082759 -0.704948 39.605110 1.832361 0.000000 0.000000 0.000000 
0.006392 0.955905 0.058778 -3.814575 -4.799416 3.890034 4.786848 -0.721970 -15.705558 -3.584061 0.469537 8.969589 4.606667 11.194413 9.256702 0.000000 0.000000 0.000000 -2.270349 1.756972 -18.970211 9.053277 -1.755640 38.117840 -6.048340 -15.803537 4.708523 0.000000 0.000000 0.000000 -3.678612 0.025385 16.056904 4.668393 -0.734560 -21.843567 -0.210421 0.264214 26.944551 -2.506138 2.467409 -17.235894 0.000000 0.000000 0.000000 -19.686551 0.858826 -0.835682 -46.790142 -8.604955 -4.761246 -4.892491 -39.036858 4.280799 0.000000 0.000000 0.000000 11.709826 5.724664 1.716478 56.745310 8.138977 -4.270452 -0.965423 39.729530 1.546695 0.000000 0.000000 0.000000 
0.005335 0.958201 0.074548 -3.676211 -4.334514 4.279861 3.723871 -0.811005 -14.320935 -2.402783 0.228650 7.657469 4.648805 11.329765 9.420346 0.000000 0.000000 0.000000 -1.102333 1.827244 -18.360316 5.130879 -0.305806 26.157667 -4.975413 -13.263178 3.431900 0.000000 0.000000 0.000000 -2.732927 -0.128193 14.478579 3.820027 -0.530783 -21.548853 -0.348021 -0.339034 27.047279 -2.652216 2.522000 -18.842551 0.000000 0.000000 0.000000 -17.704623 0.633686 -0.551414 -47.832788 -9.653310 -4.379736 -5.614091 -40.140029 4.753380 0.000000 0.000000 0.000000 11.987110 5.349605 1.461411 57.813210 6.884870 -4.906872 -0.696622 40.993181 1.679625 0.000000 0.000000 0.000000 
0.003516 0.959730 0.088800 -3.153933 -4.125684 4.173044 3.354401 -0.772649 -12.641370 -1.957572 0.158681 5.842744 4.229619 10.721351 9.946556 0.000000 0.000000 0.000000 -1.095514 1.622074 -16.464247 2.490182 0.189262 16.282479 -3.208436 -10.213876 6.530028 0.000000 0.000000 0.000000 -3.560220 -0.002661 13.016766 4.738028 -0.795013 -21.070340 -0.503697 -0.771389 27.204251 -3.877525 3.286592 -20.864138 0.000000 0.000000 0.000000 -16.990995 2.149410 -1.289903 -48.344200 -10.443043 -4.068178 -7.501119 -39.910106 5.475102 0.000000 0.000000 0.000000 9.889571 4.700015 1.211243 59.982284 5.662439 -5.702972 0.386807 42.225226 2.139796 0.000000 0.000000 0.000000 
